Coordinates
version=1
nRows=25
nColumns=24
inDegrees=yes

Units are S.I. units (second, meters, Newtons, ...)
If the header above contains a line with 'inDegrees', this indicates whether rotational values are in degrees (yes) or radians (no).

endheader
time	pelvis_tilt	pelvis_list	pelvis_rotation	pelvis_tx	pelvis_ty	pelvis_tz	hip_flexion_r	hip_adduction_r	hip_rotation_r	knee_angle_r	ankle_angle_r	subtalar_angle_r	mtp_angle_r	hip_flexion_l	hip_adduction_l	hip_rotation_l	knee_angle_l	ankle_angle_l	subtalar_angle_l	mtp_angle_l	lumbar_extension	lumbar_bending	lumbar_rotation
3.325000	10.777182	1.988036	-179.610735	0.275788	0.760703	-1.213355	42.504036	-20.994029	-22.824666	-56.931252	18.200657	7.486311	0.000000	43.974939	-26.218367	-19.582287	-56.370445	17.272534	13.266587	0.000000	-6.605267	1.702111	1.457483
3.330000	10.878856	1.994305	-179.654245	0.274966	0.764534	-1.213256	41.916152	-20.743602	-23.095936	-55.704309	17.630028	7.558370	0.000000	43.348317	-25.986429	-19.901534	-55.168231	16.846397	13.412413	0.000000	-6.367931	1.738374	1.426915
3.335000	10.891998	1.977988	-179.663802	0.274116	0.768353	-1.213252	41.249065	-20.523245	-23.372090	-54.513394	17.088178	7.604889	0.000000	42.636403	-25.741322	-20.224751	-53.993449	16.321925	13.363653	0.000000	-6.224578	1.714302	1.398733
3.340000	10.945822	1.972212	-179.681080	0.273277	0.772103	-1.213174	40.627039	-20.285771	-23.634191	-53.310534	16.524597	7.672254	0.000000	41.980039	-25.492928	-20.522598	-52.827301	15.767495	13.288981	0.000000	-6.037537	1.715142	1.344094
3.345000	10.855952	2.007605	-179.700737	0.272356	0.775933	-1.213456	39.843378	-19.977110	-23.915259	-52.125360	16.015233	7.693278	0.000000	41.174168	-25.315951	-20.800321	-51.637881	15.207802	13.227555	0.000000	-6.020167	1.715335	1.290060
3.350000	10.976851	1.979690	-179.712380	0.271546	0.779423	-1.213235	39.303566	-19.777310	-24.162836	-50.926015	15.429458	7.780602	0.000000	40.593067	-25.021640	-21.083783	-50.468586	14.679620	13.144199	0.000000	-5.757918	1.706651	1.237229
3.355000	11.004626	1.957478	-179.731733	0.270647	0.782986	-1.213150	38.651155	-19.546219	-24.409062	-49.705750	14.856874	7.848116	0.000000	39.898164	-24.750030	-21.377863	-49.282800	14.134103	13.055057	0.000000	-5.600557	1.699852	1.163742
3.360000	11.045590	1.939525	-179.746882	0.269758	0.786419	-1.213076	38.022376	-19.305402	-24.632085	-48.501232	14.311286	7.889659	0.000000	39.233502	-24.480671	-21.660016	-48.111319	13.598668	12.976525	0.000000	-5.424163	1.685810	1.106231
3.365000	11.001613	1.918670	-179.746581	0.268873	0.789823	-1.213125	37.319666	-19.086412	-24.911579	-47.345443	13.798801	7.939068	0.000000	38.499740	-24.210198	-21.908848	-46.951674	13.051442	12.891772	0.000000	-5.353080	1.645966	1.037228
3.370000	11.019844	1.888257	-179.759278	0.267935	0.793121	-1.212996	36.692141	-18.882576	-25.162128	-46.190694	13.269913	7.994737	0.000000	37.816134	-23.925570	-22.187537	-45.785733	12.484667	12.775003	0.000000	-5.203068	1.624019	0.976709
3.375000	11.092677	1.912369	-179.807873	0.266943	0.796392	-1.212859	36.092215	-18.588553	-25.400657	-44.965574	12.697125	8.053284	0.000000	37.192682	-23.700259	-22.449441	-44.621001	11.957981	12.678401	0.000000	-4.980227	1.681635	0.939917
3.380000	11.121586	1.928521	-179.803946	0.266067	0.799517	-1.212878	35.458229	-18.312771	-25.641578	-43.771001	12.143955	8.097352	0.000000	36.564560	-23.456277	-22.665670	-43.468893	11.418832	12.599325	0.000000	-4.824152	1.690086	0.853057
3.385000	11.132271	1.912639	-179.777637	0.265108	0.802603	-1.212839	34.796838	-18.076232	-25.873401	-42.569359	11.575526	8.139275	0.000000	35.910899	-23.159158	-22.865127	-42.305803	10.893753	12.521336	0.000000	-4.680213	1.675232	0.698699
3.390000	11.151590	1.919823	-179.797174	0.264191	0.805525	-1.212824	34.184060	-17.805595	-26.084679	-41.414391	11.035054	8.191871	0.000000	35.274309	-22.916774	-23.086422	-41.180632	10.375979	12.443199	0.000000	-4.523539	1.678024	0.645908
3.395000	11.166117	1.904113	-179.809157	0.263261	0.808381	-1.212724	33.576874	-17.573792	-26.303882	-40.280761	10.507983	8.252376	0.000000	34.633285	-22.651590	-23.333286	-40.061621	9.834690	12.356937	0.000000	-4.371561	1.669657	0.593412
3.400000	11.152842	1.877102	-179.824832	0.262234	0.811125	-1.212532	32.946418	-17.360980	-26.502305	-39.170337	10.012113	8.316666	0.000000	33.952200	-22.351477	-23.543046	-38.943708	9.320729	12.187749	0.000000	-4.243825	1.675815	0.511736
3.405000	11.171227	1.862622	-179.831815	0.261384	0.813759	-1.212477	32.359733	-17.124969	-26.693299	-38.058258	9.491969	8.397732	0.000000	33.342108	-22.070921	-23.715011	-37.840451	8.795681	12.035120	0.000000	-4.090031	1.656691	0.462664
3.410000	11.151563	1.831964	-179.834221	0.260389	0.816291	-1.212390	31.731650	-16.909643	-26.871512	-36.960633	8.996581	8.477093	0.000000	32.690596	-21.790186	-23.935620	-36.772493	8.298678	11.931798	0.000000	-3.970510	1.639829	0.368139
3.415000	11.131194	1.800968	-179.779757	0.259582	0.818736	-1.212386	31.111395	-16.705534	-27.066506	-35.875462	8.509051	8.513978	0.000000	32.089102	-21.488333	-24.089736	-35.712905	7.811415	11.860456	0.000000	-3.862666	1.582752	0.274402
3.420000	11.125276	1.793794	-179.774026	0.258656	0.821037	-1.212325	30.529288	-16.479840	-27.261203	-34.834487	8.034084	8.583421	0.000000	31.504464	-21.238684	-24.262975	-34.699290	7.325088	11.741367	0.000000	-3.733830	1.584258	0.190791
3.425000	11.199217	1.817991	-179.804377	0.257687	0.823181	-1.212186	30.043499	-16.216265	-27.433674	-33.806306	7.573636	8.621389	0.000000	30.995952	-21.018507	-24.424525	-33.687516	6.868894	11.593072	0.000000	-3.503834	1.631752	0.161395
3.430000	11.212120	1.816406	-179.819434	0.256785	0.825218	-1.212080	29.521982	-15.991638	-27.609173	-32.827399	7.139575	8.632973	0.000000	30.450450	-20.782709	-24.588185	-32.718241	6.425794	11.449133	0.000000	-3.347022	1.647667	0.108338
3.435000	11.181591	1.783527	-179.793272	0.255955	0.827113	-1.212106	28.966235	-15.802068	-27.761896	-31.877995	6.739052	8.647428	0.000000	29.893625	-20.523481	-24.746468	-31.787223	6.002007	11.360281	0.000000	-3.251780	1.585863	0.044749
3.440000	11.220231	1.789070	-179.837713	0.254995	0.828859	-1.211920	28.490098	-15.570065	-27.895874	-30.920315	6.313584	8.689571	0.000000	29.388801	-20.319812	-24.948343	-30.887061	5.631309	11.271746	0.000000	-3.053538	1.627200	0.039196
3.445000	11.150295	1.819661	-179.833831	0.254133	0.830627	-1.212150	27.905416	-15.289790	-28.030743	-29.989995	5.947234	8.637264	0.000000	28.817139	-20.171376	-25.128440	-30.006593	5.223822	11.245561	0.000000	-2.997169	1.626653	-0.011367
